<svg width="50" height="41" viewBox="0 0 50 41" fill="none" xmlns="http://www.w3.org/2000/svg">
<path d="M15.724 40.6276C34.592 40.6276 44.912 24.9956 44.912 11.4396C44.912 10.9956 44.912 10.5536 44.882 10.1136C46.8897 8.66142 48.6227 6.86336 50 4.8036C48.1278 5.6332 46.1417 6.17726 44.108 6.4176C46.2495 5.13556 47.8522 3.11914 48.618 0.7436C46.6043 1.93851 44.4013 2.78063 42.104 3.2336C40.5573 1.58897 38.5117 0.499937 36.2837 0.135027C34.0558 -0.229884 31.7696 0.149673 29.7791 1.21496C27.7886 2.28025 26.2046 3.97188 25.2724 6.02808C24.3401 8.08427 24.1115 10.3904 24.622 12.5896C20.5435 12.3851 16.5536 11.3253 12.9113 9.47878C9.26897 7.6323 6.05567 5.04049 3.48 1.8716C2.16818 4.12992 1.7664 6.80332 2.35646 9.34748C2.94651 11.8916 4.48405 14.1153 6.656 15.5656C5.02348 15.5172 3.42656 15.0768 2 14.2816C2 14.3236 2 14.3676 2 14.4116C2.00065 16.78 2.82052 19.0753 4.32056 20.9082C5.82061 22.7411 7.90846 23.9986 10.23 24.4676C8.71974 24.8795 7.13516 24.9397 5.598 24.6436C6.25352 26.6819 7.52973 28.4644 9.24814 29.7418C10.9666 31.0191 13.0412 31.7274 15.182 31.7676C11.5495 34.6225 7.06212 36.1723 2.442 36.1676C1.62581 36.166 0.810408 36.1166 0 36.0196C4.69127 39.0301 10.1498 40.627 15.724 40.6196" fill="#A05A5A"/>
</svg>
